<svg width="44" height="38" viewBox="0 0 44 38" fill="none" xmlns="http://www.w3.org/2000/svg">
<path d="M40.1902 3.35797C39.1261 2.2934 37.8627 1.4489 36.4722 0.872728C35.0816 0.296557 33.5912 0 32.086 0C30.5808 0 29.0904 0.296557 27.6999 0.872728C26.3093 1.4489 25.0459 2.2934 23.9819 3.35797L21.7735 5.5663L19.5652 3.35797C17.4158 1.20861 14.5007 0.00111409 11.461 0.00111411C8.42137 0.00111413 5.50622 1.20861 3.35686 3.35797C1.2075 5.50733 2.26472e-08 8.42248 0 11.4621C-2.26472e-08 14.5018 1.2075 17.4169 3.35686 19.5663L5.56519 21.7746L21.7735 37.983L37.9819 21.7746L40.1902 19.5663C41.2548 18.5022 42.0993 17.2388 42.6754 15.8483C43.2516 14.4578 43.5482 12.9673 43.5482 11.4621C43.5482 9.95695 43.2516 8.46652 42.6754 7.07598C42.0993 5.68544 41.2548 4.42204 40.1902 3.35797Z" fill="white"/>
</svg>
