<svg width="69" height="77" viewBox="0 0 69 77" fill="none" xmlns="http://www.w3.org/2000/svg">
<path d="M10.3785 56.9059H8.33809L7.98405 55.2541C7.74802 55.122 7.4033 55.0064 6.94987 54.9073C6.49645 54.8082 6.01508 54.7586 5.50575 54.7586C4.7604 54.7586 4.1843 54.8976 3.77746 55.1757C3.37062 55.4537 3.16721 55.813 3.16721 56.2534C3.16721 56.6609 3.37994 56.9953 3.80542 57.2569C4.23089 57.5184 4.96537 57.7951 6.00886 58.0869C7.50578 58.4558 8.64089 58.943 9.4142 59.5487C10.1875 60.1543 10.5742 60.9499 10.5742 61.9354C10.5742 62.965 10.1145 63.7771 9.19525 64.3717C8.27598 64.9664 7.06478 65.2637 5.56165 65.2637C4.4871 65.2637 3.51659 65.1123 2.65012 64.8095C1.78365 64.5066 1.06159 64.0882 0.483938 63.5541V61.0435H2.58956L2.87838 62.753C3.15168 62.9512 3.5228 63.115 3.99176 63.2444C4.4607 63.3738 4.984 63.4385 5.56165 63.4385C6.30701 63.4385 6.87379 63.3036 7.26199 63.0338C7.65019 62.764 7.8443 62.4034 7.8443 61.9519C7.8443 61.4895 7.65951 61.1178 7.28995 60.837C6.92037 60.5562 6.27285 60.2919 5.34737 60.0442C3.73865 59.6312 2.52124 59.1412 1.69514 58.5741C0.869041 58.007 0.455994 57.2307 0.455994 56.2452C0.455994 55.2706 0.921837 54.4737 1.85353 53.8543C2.78522 53.2349 3.95604 52.9169 5.366 52.9004C6.4095 52.9004 7.35982 53.0408 8.21697 53.3216C9.07413 53.6024 9.79464 53.9768 10.3785 54.4448V56.9059Z" fill="#B00000"/>
<path d="M22.7607 57.1205H20.7389L20.4594 55.5184C20.1923 55.2816 19.8554 55.0944 19.4485 54.9568C19.0417 54.8191 18.5619 54.7503 18.0091 54.7503C16.8289 54.7503 15.9205 55.1302 15.2839 55.89C14.6472 56.6498 14.3289 57.6408 14.3289 58.8631V59.2843C14.3289 60.5066 14.6456 61.5004 15.2792 62.2657C15.9127 63.031 16.8072 63.4137 17.9625 63.4137C18.4966 63.4137 18.9858 63.3449 19.4299 63.2072C19.874 63.0696 20.2172 62.8824 20.4594 62.6456L20.7389 61.0434H22.7607V63.4219C22.2141 63.9835 21.5169 64.4309 20.669 64.764C19.8212 65.0971 18.8724 65.2636 17.8227 65.2636C16.0028 65.2636 14.5121 64.7048 13.3506 63.5871C12.1891 62.4694 11.6083 61.0352 11.6083 59.2843V58.8797C11.6083 57.1343 12.186 55.7001 13.3413 54.5769C14.4966 53.4537 15.9904 52.8921 17.8227 52.8921C18.8724 52.8921 19.8196 53.0614 20.6644 53.4C21.5091 53.7386 22.2079 54.186 22.7607 54.742V57.1205Z" fill="#B00000"/>
<path d="M30.1024 53.0654C31.6428 53.0654 32.8509 53.3779 33.7267 54.0028C34.6025 54.6277 35.0404 55.4907 35.0404 56.5919C35.0404 57.1975 34.8571 57.7233 34.4907 58.1693C34.1242 58.6153 33.5869 58.9759 32.8788 59.2512C33.6801 59.4604 34.2562 59.8087 34.6071 60.2959C34.9581 60.7832 35.1335 61.3875 35.1335 62.1087V62.7199C35.1335 62.9841 35.1926 63.1892 35.3106 63.3351C35.4286 63.481 35.6242 63.5678 35.8975 63.5953L36.2329 63.6366V65.0901H34.8261C33.9379 65.0901 33.3136 64.8781 32.9534 64.4542C32.5931 64.0302 32.413 63.4824 32.413 62.8107V62.1252C32.413 61.5416 32.2375 61.0833 31.8866 60.7502C31.5357 60.4171 31.0403 60.2423 30.4006 60.2257H28.1738V63.3971L29.6273 63.6448V65.0901H24.0092V63.6448L25.4533 63.3971V54.7667L24.0092 54.519V53.0654H25.4533H30.1024ZM28.1738 58.3675H30.0558C30.8136 58.3675 31.3819 58.2244 31.7608 57.9381C32.1397 57.6518 32.3291 57.2388 32.3291 56.6993C32.3291 56.1597 32.1413 55.7289 31.7655 55.4068C31.3897 55.0847 30.8353 54.9236 30.1024 54.9236H28.1738V58.3675Z" fill="#B00000"/>
<path d="M42.5871 53.0654V54.519L41.1337 54.7667V61.0433C41.1337 61.8362 41.3743 62.4294 41.8557 62.8231C42.3371 63.2168 42.997 63.4136 43.8356 63.4136C44.6865 63.4136 45.3542 63.2181 45.8387 62.8272C46.3232 62.4363 46.5654 61.8417 46.5654 61.0433V54.7667L45.1213 54.519V53.0654H50.7394V54.519L49.2859 54.7667V61.0433C49.2859 62.3923 48.7844 63.4329 47.7813 64.1651C46.7781 64.8974 45.4629 65.2635 43.8356 65.2635C42.2144 65.2635 40.9054 64.8974 39.9085 64.1651C38.9116 63.4329 38.4131 62.3923 38.4131 61.0433V54.7667L36.969 54.519V53.0654H38.4131H41.1337H42.5871Z" fill="#B00000"/>
<path d="M64.6309 56.1955L64.575 56.1872L60.9414 65.0901H59.1152L55.5003 56.2203L55.4444 56.2285L55.7053 61.5058V63.3971L57.1587 63.6448V65.0901H51.5406V63.6448L52.9847 63.3971V54.7667L51.5406 54.519V53.0654H52.9847H56.5345L59.991 61.927H60.0469L63.5315 53.0654H68.544V54.519L67.0905 54.7667V63.3971L68.544 63.6448V65.0901H62.9259V63.6448L64.37 63.3971V61.5058L64.6309 56.1955Z" fill="#B00000"/>
<path d="M8.15582 75.52C7.92249 75.7746 7.51641 76.0182 6.93758 76.2509C6.35875 76.4836 5.63409 76.5999 4.76359 76.5999C3.48926 76.5999 2.45275 76.1922 1.65405 75.3768C0.855348 74.5615 0.455994 73.4995 0.455994 72.1909V72.006C0.455994 70.7173 0.855348 69.6712 1.65405 68.8678C2.45275 68.0643 3.50048 67.6626 4.79724 67.6626C5.53312 67.6626 6.18375 67.771 6.74912 67.9878C7.31449 68.2045 7.77442 68.5018 8.1289 68.8797V70.3891H7.50295L7.36161 69.1183C7.09687 68.8598 6.75361 68.654 6.33182 68.5008C5.91004 68.3477 5.41871 68.2711 4.85782 68.2711C3.74503 68.2711 2.8678 68.6172 2.22615 69.3093C1.5845 70.0013 1.26367 70.8963 1.26367 71.994V72.1909C1.26367 73.3205 1.57889 74.2373 2.20932 74.9413C2.83976 75.6453 3.69118 75.9973 4.76359 75.9973C5.40076 75.9973 5.94593 75.9237 6.39913 75.7766C6.85232 75.6294 7.17091 75.4723 7.35488 75.3053V73.1992L5.47031 73.1694V72.5906H8.15583L8.15582 75.52Z" fill="#B00000"/>
<path d="M15.5225 72.2684H11.5043V75.872H16.135L16.1955 74.5714H16.909V76.4746H9.60626V75.9495L10.7034 75.872V68.3964L9.60626 68.3188V67.7878H10.7034H16.8753V69.697H16.1619L16.1013 68.3964H11.5043V71.6599H15.5225V72.2684Z" fill="#B00000"/>
<path d="M27.8967 67.7878V68.3188L26.7996 68.3964V76.4746H25.9987L20.4325 69.0049L20.3921 69.0109V75.872L21.4892 75.9495V76.4746H18.4873V75.9495L19.5844 75.872V68.3964L18.4873 68.3188V67.7878H19.5844H20.3921L25.9583 75.2455L25.9987 75.2396V68.3964L24.9016 68.3188V67.7878H26.7996H27.8967Z" fill="#B00000"/>
<path d="M29.3539 68.3188V67.7878H32.3557V68.3188L31.2586 68.3964V75.872L32.3557 75.9496V76.4746H29.3539V75.9496L30.451 75.872V68.3964L29.3539 68.3188Z" fill="#B00000"/>
<path d="M36.8854 67.7878V68.3188L35.7884 68.3964V73.6764C35.7884 74.4162 36.0351 74.988 36.5287 75.3917C37.0223 75.7954 37.6662 75.9973 38.4604 75.9973C39.2681 75.9973 39.9254 75.7964 40.4325 75.3947C40.9395 74.993 41.193 74.4202 41.193 73.6764V68.3964L40.0959 68.3188V67.7878H43.0911V68.3188L41.994 68.3964V73.6764C41.994 74.6231 41.6675 75.347 41.0147 75.8481C40.3618 76.3493 39.5104 76.5999 38.4604 76.5999C37.4284 76.5999 36.5915 76.3483 35.9499 75.8451C35.3082 75.342 34.9874 74.6191 34.9874 73.6764V68.3964L33.8903 68.3188V67.7878H34.9874H35.7884H36.8854Z" fill="#B00000"/>
<path d="M51.2262 70.3693H50.5671L50.4527 69.1411C50.2106 68.8708 49.881 68.6592 49.464 68.5061C49.047 68.3531 48.5582 68.2766 47.9977 68.2766C47.1906 68.2766 46.5617 68.4316 46.111 68.7416C45.6604 69.0517 45.4351 69.4372 45.4351 69.8983C45.4351 70.3355 45.638 70.7002 46.0438 70.9924C46.4496 71.2845 47.1525 71.5419 48.1524 71.7645C49.2062 72.003 50.0077 72.3249 50.557 72.7303C51.1063 73.1358 51.3809 73.6704 51.3809 74.3342C51.3809 75.0258 51.0626 75.5763 50.4258 75.9857C49.7891 76.3951 48.9752 76.5998 47.9843 76.5998C47.2847 76.5998 46.6357 76.4905 46.037 76.2719C45.4384 76.0533 44.9485 75.7412 44.5674 75.3358V73.8155H45.2265L45.3409 75.0854C45.6368 75.3835 46.0157 75.6101 46.4776 75.7651C46.9395 75.9201 47.4417 75.9976 47.9843 75.9976C48.7555 75.9976 49.3799 75.8466 49.8575 75.5445C50.335 75.2424 50.5738 74.8429 50.5738 74.3461C50.5738 73.8731 50.3743 73.4865 49.9752 73.1864C49.5761 72.8863 48.8811 72.621 47.8901 72.3905C46.8184 72.152 46.0068 71.842 45.4552 71.4604C44.9037 71.0788 44.6279 70.5641 44.6279 69.9162C44.6279 69.2524 44.9418 68.7118 45.5696 68.2945C46.1973 67.8771 47.0067 67.6685 47.9977 67.6685C48.7107 67.6685 49.3463 67.7778 49.9046 67.9964C50.4628 68.215 50.9034 68.5111 51.2262 68.8847L51.2262 70.3693Z" fill="#B00000"/>
<path d="M58.5446 72.2684H54.5264V75.872H59.1571L59.2176 74.5714H59.9311V76.4746H52.6284V75.9495L53.7254 75.872V68.3964L52.6284 68.3188V67.7878H53.7254H59.8974V69.697H59.184L59.1234 68.3964H54.5264V71.6599H58.5446V72.2684Z" fill="#B00000"/>
<path d="M68.3893 70.3693H67.7301L67.6158 69.1411C67.3736 68.8708 67.044 68.6592 66.627 68.5061C66.21 68.3531 65.7212 68.2766 65.1607 68.2766C64.3536 68.2766 63.7247 68.4316 63.2741 68.7416C62.8234 69.0517 62.5981 69.4372 62.5981 69.8983C62.5981 70.3355 62.801 70.7002 63.2068 70.9924C63.6126 71.2845 64.3155 71.5419 65.3154 71.7645C66.3692 72.003 67.1707 72.3249 67.72 72.7303C68.2693 73.1358 68.544 73.6704 68.544 74.3342C68.544 75.0258 68.2256 75.5763 67.5889 75.9857C66.9521 76.3951 66.1383 76.5998 65.1473 76.5998C64.4478 76.5998 63.7987 76.4905 63.2001 76.2719C62.6014 76.0533 62.1116 75.7412 61.7304 75.3358V73.8155H62.3896L62.5039 75.0854C62.7999 75.3835 63.1788 75.6101 63.6406 75.7651C64.1025 75.9201 64.6047 75.9976 65.1473 75.9976C65.9185 75.9976 66.5429 75.8466 67.0205 75.5445C67.4981 75.2424 67.7368 74.8429 67.7368 74.3461C67.7368 73.8731 67.5373 73.4865 67.1382 73.1864C66.7391 72.8863 66.0441 72.621 65.0531 72.3905C63.9814 72.152 63.1698 71.842 62.6183 71.4604C62.0667 71.0788 61.7909 70.5641 61.7909 69.9162C61.7909 69.2524 62.1048 68.7118 62.7326 68.2945C63.3604 67.8771 64.1697 67.6685 65.1607 67.6685C65.8737 67.6685 66.5093 67.7778 67.0676 67.9964C67.6259 68.215 68.0664 68.5111 68.3893 68.8847L68.3893 70.3693Z" fill="#B00000"/>
<path fill-rule="evenodd" clip-rule="evenodd" d="M38.4142 5.78065C38.5134 5.80995 38.6156 5.8246 38.7153 5.8246C39.1135 5.8246 39.4854 5.60119 39.6176 5.2473L41.0234 1.51116C41.1892 1.06893 40.9206 0.591437 40.4217 0.444025C39.9228 0.295238 39.3831 0.535128 39.2178 0.977367L37.8125 4.71351C37.6468 5.15575 37.9153 5.6337 38.4142 5.78065ZM29.3813 5.24685C29.5145 5.60027 29.8859 5.8246 30.2846 5.8246C30.3837 5.8246 30.4855 5.81041 30.5852 5.78065C31.0835 5.63369 31.3531 5.1562 31.1873 4.71397L29.7831 0.977825C29.6173 0.536043 29.0802 0.29707 28.5797 0.444025C28.0808 0.59144 27.8112 1.06893 27.9775 1.51116L29.3813 5.24685ZM49.2228 5.62911C48.8509 5.29949 48.2487 5.29949 47.8774 5.62911L45.0673 8.12003C44.6954 8.44919 44.6954 8.9839 45.0673 9.3126C45.2532 9.47741 45.497 9.55982 45.7402 9.55982C45.984 9.55982 46.2273 9.47742 46.4132 9.3126L49.2233 6.8217C49.5946 6.49299 49.5946 5.95827 49.2228 5.62911ZM23.2596 9.56028C23.5034 9.56028 23.7461 9.47788 23.9326 9.31306C24.3044 8.9839 24.3044 8.44919 23.9326 8.12048L21.1225 5.62957C20.7507 5.29995 20.1485 5.29995 19.7771 5.62957C19.4053 5.95873 19.4053 6.49345 19.7771 6.82215L22.5872 9.31306C22.7726 9.47787 23.0164 9.56028 23.2596 9.56028ZM34.4999 8.28621C28.119 8.28621 22.3083 13.437 22.3083 19.0927C22.3083 23.0701 24.1676 25.7075 25.9654 28.2584C27.6971 30.714 29.3332 33.0342 29.3332 36.5291C29.3332 36.9946 29.7588 37.3723 30.2851 37.3723H32.8509L29.984 38.2197C29.4851 38.3667 29.216 38.8442 29.3823 39.286C29.515 39.6394 29.8864 39.8628 30.2851 39.8628C30.3842 39.8628 30.486 39.8495 30.5857 39.8198L39.0169 37.3288C39.0278 37.3256 39.0371 37.3197 39.0484 37.3169C39.0805 37.3059 39.112 37.2927 39.1424 37.2799C39.1693 37.2675 39.1951 37.2551 39.2194 37.2423C39.2457 37.2281 39.27 37.2116 39.2948 37.1947C39.3196 37.1773 39.3438 37.1608 39.3671 37.1421C39.3888 37.1237 39.4084 37.1036 39.428 37.0839C39.4477 37.0633 39.4678 37.0432 39.4854 37.0212C39.504 36.9983 39.52 36.974 39.536 36.9498C39.5504 36.9278 39.5654 36.9058 39.5773 36.8829C39.5907 36.8573 39.6016 36.8303 39.6119 36.8024C39.6212 36.7781 39.631 36.7534 39.6382 36.7277C39.6455 36.7012 39.6496 36.6751 39.6537 36.6476C39.6589 36.6193 39.663 36.5904 39.6641 36.5611C39.6646 36.5501 39.6682 36.54 39.6682 36.5295C39.6682 33.0342 41.3038 30.7145 43.036 28.2588C44.8333 25.7084 46.6926 23.071 46.6926 19.0931C46.6911 13.437 40.8803 8.28621 34.4999 8.28621ZM34.501 10.3752C34.501 10.3752 42.9307 10.3752 44.3344 17.847C44.3335 17.8471 44.3291 17.8349 44.3206 17.8112C44.1592 17.3593 42.5103 12.7419 34.501 10.3752ZM40.6479 23.9733C37.9752 27.5263 37.9447 32.331 37.9447 32.3791C37.9447 32.6899 37.6607 32.9417 37.31 32.9417C36.9588 32.9417 36.6753 32.6899 36.6753 32.3791C36.6753 32.1845 36.7037 27.8999 38.9932 24.2237H37.3095C37.2098 24.2237 37.1148 24.2041 37.0311 24.1665L36.4718 25.1586C36.3401 25.3925 36.0411 25.512 35.7586 25.4548C35.4719 25.3943 35.27 25.1682 35.27 24.9068V24.7983L35.0665 25.1586C34.9343 25.3925 34.6415 25.5129 34.3528 25.4548C34.0666 25.3943 33.8647 25.1682 33.8647 24.9068V24.7983L33.6612 25.1586C33.5295 25.3925 33.2362 25.5129 32.9475 25.4548C32.6613 25.3943 32.4594 25.1682 32.4594 24.9068V24.7992L32.257 25.1586C32.1258 25.3902 31.8324 25.5129 31.5437 25.4539C31.2571 25.3948 31.0551 25.1673 31.0551 24.9072V24.2242H30.0062C32.2957 27.9004 32.3241 32.1854 32.3241 32.3795C32.3241 32.6904 32.04 32.9422 31.6899 32.9422H31.6894C31.3392 32.9422 31.0551 32.6904 31.0546 32.3804C31.0546 32.3324 31.0174 27.519 28.3509 23.9738C28.2213 23.8012 28.2094 23.5796 28.3194 23.3969C28.43 23.2138 28.6448 23.0994 28.8788 23.0994H31.6888C31.788 23.0994 31.883 23.1204 31.9662 23.1566L32.525 22.1655C32.6567 21.932 32.9506 21.8093 33.2382 21.8693C33.5249 21.9292 33.7268 22.1558 33.7268 22.4168V22.5253L33.9303 22.165C34.062 21.9315 34.3559 21.8097 34.6435 21.8693C34.9302 21.9292 35.1321 22.1558 35.1321 22.4168V22.5253L35.3356 22.165C35.4668 21.9315 35.7632 21.8088 36.0488 21.8692C36.3355 21.9292 36.5379 22.1558 36.5379 22.4168V22.5253L36.7409 22.165C36.8726 21.9315 37.169 21.8088 37.4541 21.8692C37.7408 21.9292 37.9432 22.1558 37.9432 22.4168V23.0994H40.1191C40.353 23.0994 40.5679 23.2138 40.6784 23.3969C40.7905 23.5791 40.7776 23.8007 40.6479 23.9733ZM38.4142 38.2193L29.9835 40.7088C29.4846 40.8558 29.2155 41.3337 29.3818 41.7764C29.5145 42.1294 29.8859 42.3532 30.2846 42.3532C30.3837 42.3532 30.4855 42.3391 30.5852 42.3093L39.0164 39.8193C39.5143 39.6723 39.7839 39.1944 39.6176 38.7517C39.4523 38.3104 38.9121 38.0719 38.4142 38.2193ZM36.838 41.1753L31.381 42.7872C30.8826 42.9347 30.613 43.4121 30.7793 43.8548C30.9126 44.2078 31.2834 44.4317 31.6821 44.4317C31.7818 44.4317 31.883 44.4175 31.9827 44.3877L37.4402 42.7753C37.9386 42.6284 38.2076 42.1504 38.0413 41.7091C37.8761 41.2673 37.3358 41.0279 36.838 41.1753Z" fill="#B00000"/>
</svg>
