<svg width="197" height="127" viewBox="0 0 197 127" fill="none" xmlns="http://www.w3.org/2000/svg">
<path d="M74.3785 81.9059H72.3381L71.984 80.2541C71.748 80.122 71.4033 80.0064 70.9499 79.9073C70.4964 79.8082 70.0151 79.7586 69.5058 79.7586C68.7604 79.7586 68.1843 79.8976 67.7775 80.1757C67.3706 80.4537 67.1672 80.813 67.1672 81.2534C67.1672 81.6609 67.3799 81.9953 67.8054 82.2569C68.2309 82.5184 68.9654 82.7951 70.0089 83.0869C71.5058 83.4558 72.6409 83.943 73.4142 84.5487C74.1875 85.1543 74.5742 85.9499 74.5742 86.9354C74.5742 87.965 74.1145 88.7771 73.1952 89.3717C72.276 89.9664 71.0648 90.2637 69.5617 90.2637C68.4871 90.2637 67.5166 90.1123 66.6501 89.8095C65.7836 89.5066 65.0616 89.0882 64.4839 88.5541V86.0435H66.5896L66.8784 87.753C67.1517 87.9512 67.5228 88.115 67.9918 88.2444C68.4607 88.3738 68.984 88.4385 69.5617 88.4385C70.307 88.4385 70.8738 88.3036 71.262 88.0338C71.6502 87.764 71.8443 87.4034 71.8443 86.9519C71.8443 86.4895 71.6595 86.1178 71.2899 85.837C70.9204 85.5562 70.2728 85.2919 69.3474 85.0442C67.7387 84.6312 66.5212 84.1412 65.6951 83.5741C64.869 83.007 64.456 82.2307 64.456 81.2452C64.456 80.2706 64.9218 79.4737 65.8535 78.8543C66.7852 78.2349 67.956 77.9169 69.366 77.9004C70.4095 77.9004 71.3598 78.0408 72.217 78.3216C73.0741 78.6024 73.7946 78.9768 74.3785 79.4448V81.9059Z" fill="#B00000"/>
<path d="M86.7607 82.1205H84.7389L84.4594 80.5184C84.1923 80.2816 83.8554 80.0944 83.4485 79.9568C83.0417 79.8191 82.5619 79.7503 82.0091 79.7503C80.8289 79.7503 79.9205 80.1302 79.2839 80.89C78.6472 81.6498 78.3289 82.6408 78.3289 83.8631V84.2843C78.3289 85.5066 78.6456 86.5004 79.2792 87.2657C79.9127 88.031 80.8072 88.4137 81.9625 88.4137C82.4966 88.4137 82.9858 88.3449 83.4299 88.2072C83.874 88.0696 84.2172 87.8824 84.4594 87.6456L84.7389 86.0434H86.7607V88.4219C86.2141 88.9835 85.5169 89.4309 84.669 89.764C83.8212 90.0971 82.8724 90.2636 81.8227 90.2636C80.0028 90.2636 78.5121 89.7048 77.3506 88.5871C76.1891 87.4694 75.6083 86.0352 75.6083 84.2843V83.8797C75.6083 82.1343 76.186 80.7001 77.3413 79.5769C78.4966 78.4537 79.9904 77.8921 81.8227 77.8921C82.8724 77.8921 83.8196 78.0614 84.6644 78.4C85.5091 78.7386 86.2079 79.186 86.7607 79.742V82.1205Z" fill="#B00000"/>
<path d="M94.1024 78.0654C95.6428 78.0654 96.8509 78.3779 97.7267 79.0028C98.6025 79.6277 99.0404 80.4907 99.0404 81.5919C99.0404 82.1975 98.8571 82.7233 98.4907 83.1693C98.1242 83.6153 97.5869 83.9759 96.8788 84.2512C97.6801 84.4604 98.2562 84.8087 98.6071 85.2959C98.9581 85.7832 99.1335 86.3875 99.1335 87.1087V87.7199C99.1335 87.9841 99.1926 88.1892 99.3106 88.3351C99.4286 88.481 99.6242 88.5678 99.8975 88.5953L100.233 88.6366V90.0901H98.8261C97.9379 90.0901 97.3136 89.8781 96.9534 89.4542C96.5931 89.0302 96.413 88.4824 96.413 87.8107V87.1252C96.413 86.5416 96.2375 86.0833 95.8866 85.7502C95.5357 85.4171 95.0403 85.2423 94.4006 85.2257H92.1738V88.3971L93.6273 88.6448V90.0901H88.0092V88.6448L89.4533 88.3971V79.7667L88.0092 79.519V78.0654H89.4533H94.1024ZM92.1738 83.3675H94.0558C94.8136 83.3675 95.3819 83.2244 95.7608 82.9381C96.1397 82.6518 96.3291 82.2388 96.3291 81.6993C96.3291 81.1597 96.1413 80.7289 95.7655 80.4068C95.3897 80.0847 94.8353 79.9236 94.1024 79.9236H92.1738V83.3675Z" fill="#B00000"/>
<path d="M106.587 78.0654V79.519L105.134 79.7667V86.0433C105.134 86.8362 105.374 87.4294 105.856 87.8231C106.337 88.2168 106.997 88.4136 107.836 88.4136C108.686 88.4136 109.354 88.2181 109.839 87.8272C110.323 87.4363 110.565 86.8417 110.565 86.0433V79.7667L109.121 79.519V78.0654H114.739V79.519L113.286 79.7667V86.0433C113.286 87.3923 112.784 88.4329 111.781 89.1651C110.778 89.8974 109.463 90.2635 107.836 90.2635C106.214 90.2635 104.905 89.8974 103.908 89.1651C102.912 88.4329 102.413 87.3923 102.413 86.0433V79.7667L100.969 79.519V78.0654H102.413H105.134H106.587Z" fill="#B00000"/>
<path d="M128.631 81.1955L128.575 81.1872L124.941 90.0901H123.115L119.5 81.2203L119.444 81.2285L119.705 86.5058V88.3971L121.159 88.6448V90.0901H115.541V88.6448L116.985 88.3971V79.7667L115.541 79.519V78.0654H116.985H120.534L123.991 86.927H124.047L127.531 78.0654H132.544V79.519L131.091 79.7667V88.3971L132.544 88.6448V90.0901H126.926V88.6448L128.37 88.3971V86.5058L128.631 81.1955Z" fill="#B00000"/>
<path d="M72.1558 100.52C71.9225 100.775 71.5164 101.018 70.9376 101.251C70.3587 101.484 69.6341 101.6 68.7636 101.6C67.4893 101.6 66.4527 101.192 65.654 100.377C64.8553 99.5615 64.456 98.4995 64.456 97.1909V97.006C64.456 95.7173 64.8553 94.6712 65.654 93.8678C66.4527 93.0643 67.5005 92.6626 68.7972 92.6626C69.5331 92.6626 70.1837 92.771 70.7491 92.9878C71.3145 93.2045 71.7744 93.5018 72.1289 93.8797V95.3891H71.5029L71.3616 94.1183C71.0969 93.8598 70.7536 93.654 70.3318 93.5008C69.91 93.3477 69.4187 93.2711 68.8578 93.2711C67.745 93.2711 66.8678 93.6172 66.2262 94.3093C65.5845 95.0013 65.2637 95.8963 65.2637 96.994V97.1909C65.2637 98.3205 65.5789 99.2373 66.2093 99.9413C66.8398 100.645 67.6912 100.997 68.7636 100.997C69.4008 100.997 69.9459 100.924 70.3991 100.777C70.8523 100.629 71.1709 100.472 71.3549 100.305V98.1992L69.4703 98.1694V97.5906H72.1558L72.1558 100.52Z" fill="#B00000"/>
<path d="M79.5225 97.2684H75.5043V100.872H80.135L80.1955 99.5714H80.909V101.475H73.6063V100.95L74.7034 100.872V93.3964L73.6063 93.3188V92.7878H74.7034H80.8753V94.697H80.1619L80.1013 93.3964H75.5043V96.6599H79.5225V97.2684Z" fill="#B00000"/>
<path d="M91.8967 92.7878V93.3188L90.7996 93.3964V101.475H89.9987L84.4325 94.0049L84.3921 94.0109V100.872L85.4892 100.95V101.475H82.4873V100.95L83.5844 100.872V93.3964L82.4873 93.3188V92.7878H83.5844H84.3921L89.9583 100.246L89.9987 100.24V93.3964L88.9016 93.3188V92.7878H90.7996H91.8967Z" fill="#B00000"/>
<path d="M93.3539 93.3188V92.7878H96.3557V93.3188L95.2586 93.3964V100.872L96.3557 100.95V101.475H93.3539V100.95L94.451 100.872V93.3964L93.3539 93.3188Z" fill="#B00000"/>
<path d="M100.885 92.7878V93.3188L99.7884 93.3964V98.6764C99.7884 99.4162 100.035 99.988 100.529 100.392C101.022 100.795 101.666 100.997 102.46 100.997C103.268 100.997 103.925 100.796 104.432 100.395C104.94 99.993 105.193 99.4202 105.193 98.6764V93.3964L104.096 93.3188V92.7878H107.091V93.3188L105.994 93.3964V98.6764C105.994 99.6231 105.668 100.347 105.015 100.848C104.362 101.349 103.51 101.6 102.46 101.6C101.428 101.6 100.592 101.348 99.9499 100.845C99.3082 100.342 98.9874 99.6191 98.9874 98.6764V93.3964L97.8903 93.3188V92.7878H98.9874H99.7884H100.885Z" fill="#B00000"/>
<path d="M115.226 95.3693H114.567L114.453 94.1411C114.211 93.8708 113.881 93.6592 113.464 93.5061C113.047 93.3531 112.558 93.2766 111.998 93.2766C111.191 93.2766 110.562 93.4316 110.111 93.7416C109.66 94.0517 109.435 94.4372 109.435 94.8983C109.435 95.3355 109.638 95.7002 110.044 95.9924C110.45 96.2845 111.152 96.5419 112.152 96.7645C113.206 97.003 114.008 97.3249 114.557 97.7303C115.106 98.1358 115.381 98.6704 115.381 99.3342C115.381 100.026 115.063 100.576 114.426 100.986C113.789 101.395 112.975 101.6 111.984 101.6C111.285 101.6 110.636 101.49 110.037 101.272C109.438 101.053 108.949 100.741 108.567 100.336V98.8155H109.227L109.341 100.085C109.637 100.384 110.016 100.61 110.478 100.765C110.939 100.92 111.442 100.998 111.984 100.998C112.756 100.998 113.38 100.847 113.857 100.544C114.335 100.242 114.574 99.8429 114.574 99.3461C114.574 98.8731 114.374 98.4865 113.975 98.1864C113.576 97.8863 112.881 97.621 111.89 97.3905C110.818 97.152 110.007 96.842 109.455 96.4604C108.904 96.0788 108.628 95.5641 108.628 94.9162C108.628 94.2524 108.942 93.7118 109.57 93.2945C110.197 92.8771 111.007 92.6685 111.998 92.6685C112.711 92.6685 113.346 92.7778 113.905 92.9964C114.463 93.215 114.903 93.5111 115.226 93.8847L115.226 95.3693Z" fill="#B00000"/>
<path d="M122.545 97.2684H118.526V100.872H123.157L123.218 99.5714H123.931V101.475H116.628V100.95L117.725 100.872V93.3964L116.628 93.3188V92.7878H117.725H123.897V94.697H123.184L123.123 93.3964H118.526V96.6599H122.545V97.2684Z" fill="#B00000"/>
<path d="M132.389 95.3693H131.73L131.616 94.1411C131.374 93.8708 131.044 93.6592 130.627 93.5061C130.21 93.3531 129.721 93.2766 129.161 93.2766C128.354 93.2766 127.725 93.4316 127.274 93.7416C126.823 94.0517 126.598 94.4372 126.598 94.8983C126.598 95.3355 126.801 95.7002 127.207 95.9924C127.613 96.2845 128.315 96.5419 129.315 96.7645C130.369 97.003 131.171 97.3249 131.72 97.7303C132.269 98.1358 132.544 98.6704 132.544 99.3342C132.544 100.026 132.226 100.576 131.589 100.986C130.952 101.395 130.138 101.6 129.147 101.6C128.448 101.6 127.799 101.49 127.2 101.272C126.601 101.053 126.112 100.741 125.73 100.336V98.8155H126.39L126.504 100.085C126.8 100.384 127.179 100.61 127.641 100.765C128.102 100.92 128.605 100.998 129.147 100.998C129.919 100.998 130.543 100.847 131.02 100.544C131.498 100.242 131.737 99.8429 131.737 99.3461C131.737 98.8731 131.537 98.4865 131.138 98.1864C130.739 97.8863 130.044 97.621 129.053 97.3905C127.981 97.152 127.17 96.842 126.618 96.4604C126.067 96.0788 125.791 95.5641 125.791 94.9162C125.791 94.2524 126.105 93.7118 126.733 93.2945C127.36 92.8771 128.17 92.6685 129.161 92.6685C129.874 92.6685 130.509 92.7778 131.068 92.9964C131.626 93.215 132.066 93.5111 132.389 93.8847L132.389 95.3693Z" fill="#B00000"/>
<path fill-rule="evenodd" clip-rule="evenodd" d="M102.414 30.7806C102.513 30.8099 102.616 30.8246 102.715 30.8246C103.114 30.8246 103.485 30.6012 103.618 30.2473L105.023 26.5112C105.189 26.0689 104.921 25.5914 104.422 25.444C103.923 25.2952 103.383 25.5351 103.218 25.9774L101.813 29.7135C101.647 30.1557 101.915 30.6337 102.414 30.7806ZM93.3813 30.2468C93.5145 30.6003 93.8859 30.8246 94.2846 30.8246C94.3837 30.8246 94.4855 30.8104 94.5852 30.7806C95.0835 30.6337 95.3531 30.1562 95.1873 29.714L93.7831 25.9778C93.6173 25.536 93.0802 25.2971 92.5797 25.444C92.0808 25.5914 91.8112 26.0689 91.9775 26.5112L93.3813 30.2468ZM113.223 30.6291C112.851 30.2995 112.249 30.2995 111.877 30.6291L109.067 33.12C108.695 33.4492 108.695 33.9839 109.067 34.3126C109.253 34.4774 109.497 34.5598 109.74 34.5598C109.984 34.5598 110.227 34.4774 110.413 34.3126L113.223 31.8217C113.595 31.493 113.595 30.9583 113.223 30.6291ZM87.2596 34.5603C87.5034 34.5603 87.7461 34.4779 87.9326 34.3131C88.3044 33.9839 88.3044 33.4492 87.9326 33.1205L85.1225 30.6296C84.7507 30.3 84.1485 30.3 83.7771 30.6296C83.4053 30.9587 83.4053 31.4934 83.7771 31.8222L86.5872 34.3131C86.7726 34.4779 87.0164 34.5603 87.2596 34.5603ZM98.4999 33.2862C92.119 33.2862 86.3083 38.437 86.3083 44.0927C86.3083 48.0701 88.1676 50.7075 89.9654 53.2584C91.6971 55.714 93.3332 58.0342 93.3332 61.5291C93.3332 61.9946 93.7588 62.3723 94.2851 62.3723H96.8509L93.984 63.2197C93.4851 63.3667 93.216 63.8442 93.3823 64.286C93.515 64.6394 93.8864 64.8628 94.2851 64.8628C94.3842 64.8628 94.486 64.8495 94.5857 64.8198L103.017 62.3288C103.028 62.3256 103.037 62.3197 103.048 62.3169C103.08 62.3059 103.112 62.2927 103.142 62.2799C103.169 62.2675 103.195 62.2551 103.219 62.2423C103.246 62.2281 103.27 62.2116 103.295 62.1947C103.32 62.1773 103.344 62.1608 103.367 62.1421C103.389 62.1237 103.408 62.1036 103.428 62.0839C103.448 62.0633 103.468 62.0432 103.485 62.0212C103.504 61.9983 103.52 61.974 103.536 61.9498C103.55 61.9278 103.565 61.9058 103.577 61.8829C103.591 61.8573 103.602 61.8303 103.612 61.8024C103.621 61.7781 103.631 61.7534 103.638 61.7277C103.645 61.7012 103.65 61.6751 103.654 61.6476C103.659 61.6193 103.663 61.5904 103.664 61.5611C103.665 61.5501 103.668 61.54 103.668 61.5295C103.668 58.0342 105.304 55.7145 107.036 53.2588C108.833 50.7084 110.693 48.071 110.693 44.0931C110.691 38.437 104.88 33.2862 98.4999 33.2862ZM98.501 35.3752C98.501 35.3752 106.931 35.3752 108.334 42.847C108.333 42.8471 108.329 42.8349 108.321 42.8112C108.159 42.3593 106.51 37.7419 98.501 35.3752ZM104.648 48.9733C101.975 52.5263 101.945 57.331 101.945 57.3791C101.945 57.6899 101.661 57.9417 101.31 57.9417C100.959 57.9417 100.675 57.6899 100.675 57.3791C100.675 57.1845 100.704 52.8999 102.993 49.2237H101.31C101.21 49.2237 101.115 49.2041 101.031 49.1665L100.472 50.1586C100.34 50.3925 100.041 50.512 99.7586 50.4548C99.4719 50.3943 99.27 50.1682 99.27 49.9068V49.7983L99.0665 50.1586C98.9343 50.3925 98.6415 50.5129 98.3528 50.4548C98.0666 50.3943 97.8647 50.1682 97.8647 49.9068V49.7983L97.6612 50.1586C97.5295 50.3925 97.2362 50.5129 96.9475 50.4548C96.6613 50.3943 96.4594 50.1682 96.4594 49.9068V49.7992L96.257 50.1586C96.1258 50.3902 95.8324 50.5129 95.5437 50.4539C95.2571 50.3948 95.0551 50.1673 95.0551 49.9072V49.2242H94.0062C96.2957 52.9004 96.3241 57.1854 96.3241 57.3795C96.3241 57.6904 96.04 57.9422 95.6899 57.9422H95.6894C95.3392 57.9422 95.0551 57.6904 95.0546 57.3804C95.0546 57.3324 95.0174 52.519 92.3509 48.9738C92.2213 48.8012 92.2094 48.5796 92.3194 48.3969C92.43 48.2138 92.6448 48.0994 92.8788 48.0994H95.6888C95.788 48.0994 95.883 48.1204 95.9662 48.1566L96.525 47.1655C96.6567 46.932 96.9506 46.8093 97.2382 46.8693C97.5249 46.9292 97.7268 47.1558 97.7268 47.4168V47.5253L97.9303 47.165C98.062 46.9315 98.3559 46.8097 98.6435 46.8693C98.9302 46.9292 99.1321 47.1558 99.1321 47.4168V47.5253L99.3356 47.165C99.4668 46.9315 99.7632 46.8088 100.049 46.8692C100.335 46.9292 100.538 47.1558 100.538 47.4168V47.5253L100.741 47.165C100.873 46.9315 101.169 46.8088 101.454 46.8692C101.741 46.9292 101.943 47.1558 101.943 47.4168V48.0994H104.119C104.353 48.0994 104.568 48.2138 104.678 48.3969C104.79 48.5791 104.778 48.8007 104.648 48.9733ZM102.414 63.2193L93.9835 65.7088C93.4846 65.8558 93.2155 66.3337 93.3818 66.7764C93.5145 67.1294 93.8859 67.3532 94.2846 67.3532C94.3837 67.3532 94.4855 67.3391 94.5852 67.3093L103.016 64.8193C103.514 64.6723 103.784 64.1944 103.618 63.7517C103.452 63.3104 102.912 63.0719 102.414 63.2193ZM100.838 66.1753L95.381 67.7872C94.8826 67.9347 94.613 68.4121 94.7793 68.8548C94.9126 69.2078 95.2834 69.4317 95.6821 69.4317C95.7818 69.4317 95.883 69.4175 95.9827 69.3877L101.44 67.7753C101.939 67.6284 102.208 67.1504 102.041 66.7091C101.876 66.2673 101.336 66.0279 100.838 66.1753Z" fill="#B00000"/>
</svg>
