<svg width="304" height="167" viewBox="0 0 304 167" fill="none" xmlns="http://www.w3.org/2000/svg">
<path d="M114.777 107.703H111.628L111.082 105.531C110.718 105.357 110.186 105.205 109.486 105.075C108.786 104.945 108.044 104.88 107.258 104.88C106.107 104.88 105.218 105.062 104.591 105.428C103.963 105.794 103.649 106.266 103.649 106.845C103.649 107.381 103.977 107.821 104.634 108.165C105.29 108.509 106.424 108.872 108.034 109.256C110.344 109.741 112.096 110.382 113.289 111.178C114.482 111.975 115.079 113.021 115.079 114.317C115.079 115.671 114.37 116.738 112.951 117.52C111.533 118.302 109.663 118.693 107.344 118.693C105.686 118.693 104.188 118.494 102.851 118.096C101.514 117.698 100.4 117.148 99.5083 116.445V113.144H102.758L103.203 115.392C103.625 115.653 104.198 115.868 104.921 116.038C105.645 116.208 106.453 116.293 107.344 116.293C108.494 116.293 109.369 116.116 109.968 115.761C110.567 115.406 110.866 114.932 110.866 114.338C110.866 113.73 110.581 113.242 110.011 112.872C109.441 112.503 108.441 112.156 107.013 111.83C104.531 111.287 102.652 110.642 101.377 109.897C100.103 109.151 99.4651 108.13 99.4651 106.834C99.4651 105.553 100.184 104.505 101.622 103.69C103.059 102.876 104.866 102.458 107.042 102.436C108.652 102.436 110.119 102.621 111.441 102.99C112.764 103.359 113.876 103.851 114.777 104.467V107.703Z" fill="white"/>
<path d="M133.885 107.986H130.765L130.333 105.879C129.921 105.567 129.401 105.321 128.773 105.14C128.146 104.959 127.405 104.869 126.552 104.869C124.731 104.869 123.329 105.368 122.347 106.367C121.364 107.367 120.873 108.67 120.873 110.277V110.831C120.873 112.438 121.362 113.745 122.339 114.751C123.317 115.758 124.697 116.261 126.48 116.261C127.304 116.261 128.059 116.17 128.745 115.989C129.43 115.808 129.96 115.562 130.333 115.251L130.765 113.144H133.885V116.272C133.041 117.01 131.965 117.598 130.657 118.036C129.348 118.474 127.884 118.693 126.265 118.693C123.456 118.693 121.156 117.959 119.363 116.489C117.571 115.019 116.675 113.133 116.675 110.831V110.299C116.675 108.004 117.566 106.118 119.349 104.641C121.132 103.164 123.437 102.425 126.265 102.425C127.884 102.425 129.346 102.648 130.65 103.093C131.953 103.538 133.031 104.127 133.885 104.858V107.986Z" fill="white"/>
<path d="M145.214 102.653C147.591 102.653 149.455 103.064 150.807 103.886C152.158 104.708 152.834 105.843 152.834 107.29C152.834 108.087 152.551 108.778 151.986 109.365C151.42 109.951 150.591 110.425 149.498 110.787C150.735 111.062 151.624 111.52 152.165 112.161C152.707 112.802 152.978 113.596 152.978 114.545V115.349C152.978 115.696 153.069 115.966 153.251 116.158C153.433 116.349 153.735 116.463 154.157 116.5L154.674 116.554V118.465H152.503C151.133 118.465 150.169 118.187 149.613 117.629C149.057 117.072 148.779 116.351 148.779 115.468V114.567C148.779 113.799 148.509 113.196 147.967 112.758C147.426 112.32 146.661 112.091 145.674 112.069H142.238V116.239L144.481 116.565V118.465H135.811V116.565L138.04 116.239V104.89L135.811 104.565V102.653H138.04H145.214ZM142.238 109.625H145.142C146.311 109.625 147.188 109.437 147.773 109.061C148.358 108.684 148.65 108.141 148.65 107.432C148.65 106.722 148.36 106.156 147.78 105.732C147.2 105.309 146.345 105.097 145.214 105.097H142.238V109.625Z" fill="white"/>
<path d="M164.48 102.653V104.565L162.237 104.89V113.144C162.237 114.187 162.608 114.967 163.351 115.484C164.094 116.002 165.112 116.261 166.406 116.261C167.719 116.261 168.75 116.004 169.497 115.49C170.245 114.976 170.619 114.194 170.619 113.144V104.89L168.39 104.565V102.653H177.06V104.565L174.817 104.89V113.144C174.817 114.918 174.043 116.286 172.495 117.249C170.947 118.212 168.917 118.693 166.406 118.693C163.904 118.693 161.884 118.212 160.346 117.249C158.808 116.286 158.038 114.918 158.038 113.144V104.89L155.81 104.565V102.653H158.038H162.237H164.48Z" fill="white"/>
<path d="M198.496 106.769L198.41 106.758L192.803 118.465H189.985L184.407 106.802L184.32 106.813L184.723 113.752V116.239L186.966 116.565V118.465H178.296V116.565L180.525 116.239V104.89L178.296 104.565V102.653H180.525H186.002L191.336 114.306H191.423L196.8 102.653H204.535V104.565L202.292 104.89V116.239L204.535 116.565V118.465H195.865V116.565L198.094 116.239V113.752L198.496 106.769Z" fill="white"/>
<path d="M111.347 132.18C110.987 132.515 110.36 132.835 109.467 133.141C108.574 133.447 107.456 133.6 106.112 133.6C104.146 133.6 102.546 133.064 101.314 131.992C100.081 130.92 99.4651 129.523 99.4651 127.802V127.559C99.4651 125.865 100.081 124.489 101.314 123.433C102.546 122.376 104.163 121.848 106.164 121.848C107.3 121.848 108.304 121.99 109.176 122.275C110.049 122.561 110.759 122.951 111.306 123.448V125.433H110.34L110.121 123.762C109.713 123.422 109.183 123.152 108.532 122.95C107.882 122.749 107.123 122.648 106.258 122.648C104.541 122.648 103.187 123.103 102.197 124.013C101.207 124.923 100.711 126.1 100.711 127.544V127.802C100.711 129.288 101.198 130.493 102.171 131.419C103.144 132.345 104.457 132.808 106.112 132.808C107.096 132.808 107.937 132.711 108.636 132.517C109.336 132.324 109.827 132.117 110.111 131.898V129.128L107.203 129.089V128.328H111.347L111.347 132.18Z" fill="white"/>
<path d="M122.715 127.904H116.514V132.643H123.66L123.754 130.933H124.854V133.435H113.585V132.745L115.278 132.643V122.813L113.585 122.711V122.012H115.278H124.803V124.523H123.702L123.608 122.813H116.514V127.104H122.715V127.904Z" fill="white"/>
<path d="M141.81 122.012V122.711L140.117 122.813V133.435H138.881L130.292 123.613L130.229 123.621V132.643L131.922 132.745V133.435H127.29V132.745L128.983 132.643V122.813L127.29 122.711V122.012H128.983H130.229L138.819 131.819L138.881 131.811V122.813L137.188 122.711V122.012H140.117H141.81Z" fill="white"/>
<path d="M144.059 122.711V122.012H148.691V122.711L146.998 122.813V132.643L148.691 132.745V133.435H144.059V132.745L145.752 132.643V122.813L144.059 122.711Z" fill="white"/>
<path d="M155.681 122.012V122.711L153.988 122.813V129.756C153.988 130.729 154.369 131.48 155.131 132.011C155.892 132.542 156.886 132.808 158.112 132.808C159.358 132.808 160.372 132.543 161.155 132.015C161.937 131.487 162.328 130.734 162.328 129.756V122.813L160.635 122.711V122.012H165.257V122.711L163.564 122.813V129.756C163.564 131.001 163.061 131.952 162.053 132.611C161.046 133.27 159.732 133.6 158.112 133.6C156.519 133.6 155.228 133.269 154.237 132.607C153.247 131.946 152.752 130.995 152.752 129.756V122.813L151.059 122.711V122.012H152.752H153.988H155.681Z" fill="white"/>
<path d="M177.811 125.407H176.794L176.617 123.792C176.244 123.437 175.735 123.158 175.092 122.957C174.448 122.756 173.694 122.655 172.829 122.655C171.583 122.655 170.613 122.859 169.917 123.267C169.222 123.675 168.874 124.182 168.874 124.788C168.874 125.363 169.187 125.842 169.814 126.227C170.44 126.611 171.525 126.949 173.068 127.242C174.694 127.555 175.931 127.979 176.778 128.512C177.626 129.045 178.05 129.748 178.05 130.621C178.05 131.53 177.558 132.254 176.576 132.793C175.593 133.331 174.337 133.6 172.808 133.6C171.729 133.6 170.727 133.456 169.803 133.169C168.88 132.881 168.124 132.471 167.535 131.938V129.939H168.553L168.729 131.609C169.186 132.001 169.77 132.299 170.483 132.502C171.196 132.706 171.971 132.808 172.808 132.808C173.998 132.808 174.962 132.61 175.699 132.212C176.436 131.815 176.804 131.29 176.804 130.637C176.804 130.015 176.496 129.506 175.88 129.112C175.265 128.717 174.192 128.368 172.663 128.065C171.009 127.751 169.757 127.344 168.906 126.842C168.054 126.34 167.629 125.663 167.629 124.811C167.629 123.939 168.113 123.228 169.082 122.679C170.051 122.13 171.3 121.856 172.829 121.856C173.929 121.856 174.91 121.999 175.771 122.287C176.633 122.574 177.313 122.964 177.811 123.455L177.811 125.407Z" fill="white"/>
<path d="M189.104 127.904H182.904V132.643H190.049L190.143 130.933H191.244V133.435H179.975V132.745L181.668 132.643V122.813L179.975 122.711V122.012H181.668H191.192V124.523H190.091L189.998 122.813H182.904V127.104H189.104V127.904Z" fill="white"/>
<path d="M204.296 125.407H203.279L203.103 123.792C202.729 123.437 202.22 123.158 201.577 122.957C200.933 122.756 200.179 122.655 199.314 122.655C198.069 122.655 197.098 122.859 196.403 123.267C195.707 123.675 195.36 124.182 195.36 124.788C195.36 125.363 195.673 125.842 196.299 126.227C196.925 126.611 198.01 126.949 199.553 127.242C201.179 127.555 202.416 127.979 203.263 128.512C204.111 129.045 204.535 129.748 204.535 130.621C204.535 131.53 204.044 132.254 203.061 132.793C202.078 133.331 200.823 133.6 199.293 133.6C198.214 133.6 197.212 133.456 196.288 133.169C195.365 132.881 194.609 132.471 194.021 131.938V129.939H195.038L195.214 131.609C195.671 132.001 196.256 132.299 196.968 132.502C197.681 132.706 198.456 132.808 199.293 132.808C200.483 132.808 201.447 132.61 202.184 132.212C202.921 131.815 203.289 131.29 203.289 130.637C203.289 130.015 202.981 129.506 202.366 129.112C201.75 128.717 200.677 128.368 199.148 128.065C197.494 127.751 196.242 127.344 195.391 126.842C194.54 126.34 194.114 125.663 194.114 124.811C194.114 123.939 194.598 123.228 195.567 122.679C196.536 122.13 197.785 121.856 199.314 121.856C200.414 121.856 201.395 121.999 202.257 122.287C203.118 122.574 203.798 122.964 204.296 123.455L204.296 125.407Z" fill="white"/>
<path fill-rule="evenodd" clip-rule="evenodd" d="M158.04 40.4755C158.193 40.514 158.351 40.5333 158.505 40.5333C159.119 40.5333 159.693 40.2395 159.897 39.7742L162.067 34.8613C162.322 34.2798 161.908 33.6519 161.138 33.458C160.368 33.2624 159.535 33.5778 159.28 34.1594L157.112 39.0722C156.856 39.6538 157.27 40.2823 158.04 40.4755ZM144.101 39.7736C144.307 40.2383 144.88 40.5333 145.495 40.5333C145.648 40.5333 145.805 40.5146 145.959 40.4755C146.728 40.2823 147.144 39.6544 146.888 39.0728L144.721 34.16C144.465 33.579 143.636 33.2648 142.864 33.458C142.094 33.6519 141.678 34.2798 141.935 34.8613L144.101 39.7736ZM174.719 40.2762C174.146 39.8428 173.216 39.8428 172.643 40.2762L168.307 43.5517C167.733 43.9845 167.733 44.6876 168.307 45.1199C168.594 45.3366 168.97 45.445 169.345 45.445C169.722 45.445 170.097 45.3366 170.384 45.1199L174.72 41.8444C175.293 41.4122 175.293 40.7091 174.719 40.2762ZM134.655 45.4456C135.031 45.4456 135.405 45.3372 135.693 45.1205C136.267 44.6876 136.267 43.9845 135.693 43.5523L131.357 40.2768C130.783 39.8434 129.854 39.8434 129.28 40.2768C128.707 40.7097 128.707 41.4128 129.28 41.845L133.617 45.1205C133.903 45.3372 134.279 45.4456 134.655 45.4456ZM152 43.7702C142.153 43.7702 133.186 50.5432 133.186 57.9803C133.186 63.2104 136.056 66.6785 138.83 70.0328C141.502 73.2619 144.027 76.3128 144.027 80.9084C144.027 81.5207 144.684 82.0173 145.496 82.0173H149.455L145.031 83.1316C144.261 83.3248 143.846 83.9527 144.103 84.5336C144.308 84.9984 144.881 85.2922 145.496 85.2922C145.649 85.2922 145.806 85.2747 145.96 85.2356L158.97 81.9601C158.987 81.9559 159.001 81.9481 159.019 81.9445C159.068 81.93 159.117 81.9126 159.164 81.8957C159.205 81.8795 159.245 81.8632 159.283 81.8463C159.323 81.8277 159.361 81.806 159.399 81.7837C159.437 81.7609 159.475 81.7392 159.511 81.7145C159.544 81.6904 159.574 81.6639 159.605 81.6381C159.635 81.611 159.666 81.5845 159.693 81.5556C159.722 81.5255 159.747 81.4936 159.771 81.4617C159.794 81.4328 159.817 81.4039 159.835 81.3738C159.856 81.3401 159.873 81.3046 159.888 81.2678C159.903 81.2359 159.918 81.2034 159.929 81.1697C159.94 81.1348 159.947 81.1005 159.953 81.0644C159.961 81.027 159.967 80.9891 159.969 80.9506C159.97 80.9361 159.975 80.9229 159.975 80.909C159.975 76.3128 162.499 73.2625 165.172 70.0334C167.946 66.6797 170.815 63.2116 170.815 57.9809C170.813 50.5432 161.846 43.7702 152 43.7702ZM152.002 46.5171C152.002 46.5171 165.01 46.5171 167.176 56.3423C167.175 56.3424 167.168 56.3264 167.155 56.2952C166.906 55.701 164.361 49.6292 152.002 46.5171ZM161.487 64.3981C157.363 69.0702 157.316 75.3881 157.316 75.4514C157.316 75.8601 156.877 76.1912 156.336 76.1912C155.794 76.1912 155.357 75.8601 155.357 75.4514C155.357 75.1955 155.401 69.5614 158.934 64.7274H156.336C156.182 64.7274 156.035 64.7015 155.906 64.6522L155.043 65.9567C154.84 66.2643 154.378 66.4214 153.942 66.3462C153.5 66.2667 153.188 65.9694 153.188 65.6256V65.4829L152.874 65.9567C152.67 66.2643 152.218 66.4227 151.773 66.3462C151.331 66.2667 151.02 65.9694 151.02 65.6256V65.4829L150.706 65.9567C150.502 66.2643 150.05 66.4227 149.604 66.3462C149.163 66.2667 148.851 65.9694 148.851 65.6256V65.4841L148.539 65.9567C148.336 66.2613 147.884 66.4227 147.438 66.345C146.996 66.2673 146.684 65.9681 146.684 65.6262V64.728H145.065C148.598 69.562 148.642 75.1967 148.642 75.452C148.642 75.8607 148.204 76.1918 147.664 76.1918H147.663C147.122 76.1918 146.684 75.8607 146.683 75.4532C146.683 75.3899 146.626 69.0606 142.511 64.3987C142.311 64.1718 142.293 63.8804 142.463 63.6402C142.633 63.3994 142.965 63.2489 143.326 63.2489H147.662C147.815 63.2489 147.962 63.2766 148.09 63.3242L148.952 62.0209C149.156 61.7138 149.609 61.5525 150.053 61.6314C150.495 61.7102 150.807 62.0082 150.807 62.3514V62.494L151.121 62.0203C151.324 61.7132 151.778 61.5531 152.222 61.6314C152.664 61.7102 152.975 62.0082 152.975 62.3513V62.494L153.289 62.0203C153.492 61.7132 153.949 61.5519 154.39 61.6314C154.832 61.7102 155.145 62.0082 155.145 62.3513V62.494L155.458 62.0202C155.661 61.7132 156.119 61.5519 156.559 61.6314C157.001 61.7102 157.313 62.0082 157.313 62.3513V63.2489H160.671C161.032 63.2489 161.364 63.3994 161.534 63.6402C161.707 63.8798 161.687 64.1712 161.487 64.3981ZM158.04 83.131L145.03 86.4046C144.26 86.5979 143.845 87.2264 144.102 87.8085C144.307 88.2726 144.88 88.567 145.495 88.567C145.648 88.567 145.805 88.5484 145.959 88.5092L158.97 85.235C159.738 85.0417 160.154 84.4132 159.897 83.8311C159.642 83.2508 158.809 82.9372 158.04 83.131ZM155.608 87.0181L147.187 89.1377C146.418 89.3315 146.002 89.9594 146.259 90.5415C146.464 91.0057 147.036 91.3001 147.652 91.3001C147.805 91.3001 147.962 91.2814 148.115 91.2423L156.537 89.1221C157.306 88.9288 157.721 88.3003 157.465 87.72C157.21 87.1391 156.376 86.8242 155.608 87.0181Z" fill="white"/>
</svg>
